<?xml version="1.0" encoding="UTF-8" standalone="no"?>
<svg width="32px" height="32px" viewBox="0 0 32 32" version="1.1" xmlns="http://www.w3.org/2000/svg" xmlns:xlink="http://www.w3.org/1999/xlink" xmlns:sketch="http://www.bohemiancoding.com/sketch/ns">
    <!-- Generator: Sketch 3.5.1 (25234) - http://www.bohemiancoding.com/sketch -->
    <title>Shape</title>
    <desc>Created with Sketch.</desc>
    <defs></defs>
    <g id="Actualité" stroke="none" stroke-width="1" fill="none" fill-rule="evenodd" sketch:type="MSPage">
        <g id="Desktop-HD" sketch:type="MSArtboardGroup" transform="translate(-620.000000, -1103.000000)" fill="#000000">
            <g id="Subdivision" sketch:type="MSLayerGroup" transform="translate(0.000000, 898.000000)">
                <g id="Group-2" transform="translate(168.000000, 206.000000)" sketch:type="MSShapeGroup">
                    <g id="Facebook" transform="translate(453.000000, 0.000000)">
                        <g id="Group">
                            <g id="facebook_1_">
                                <path d="M30.5,5.00033339 C30.5,2.09659215 27.9038782,-0.5 25.0000008,-0.5 L4.99999977,-0.5 C2.09612278,-0.5 -0.5,2.09659246 -0.5,5.00033339 L-0.5,24.999668 C-0.5,27.9034665 2.09618177,30.5 5.00033339,30.5 L15,30.5 L15.5,30.5 L15.5,30 L15.5,18.6666662 L15.5,18.1666662 L15,18.1666662 L11.3333338,18.1666662 L11.8333338,18.6666662 L11.8333338,13.666667 L11.3333338,14.166667 L15,14.166667 L15.5,14.166667 L15.5,13.666667 L15.5,11.7186655 C15.5,8.56462521 17.8647401,5.83333298 20.625,5.83333298 L24.6666657,5.83333298 L24.1666657,5.33333298 L24.1666657,10.3333334 L24.6666657,9.83333343 L20.625,9.83333343 C19.8291121,9.83333343 19.1666666,10.6773039 19.1666666,11.6746655 L19.1666666,13.666667 L19.1666666,14.166667 L19.6666666,14.166667 L24.6666657,14.166667 L24.1666657,13.666667 L24.1666657,18.6666662 L24.6666657,18.1666662 L19.6666666,18.1666662 L19.1666666,18.1666662 L19.1666666,18.6666662 L19.1666666,30 L19.1666666,30.5 L19.6666666,30.5 L25.0000009,30.5 C27.903878,30.5 30.5,27.9034081 30.5,24.999668 L30.5,5.00033339 L30.5,5.00033339 Z M29.5,5.00033339 L29.5,24.999668 C29.5,27.3511638 27.3515527,29.5 25.0000009,29.5 L19.6666666,29.5 L20.1666666,30 L20.1666666,18.6666662 L19.6666666,19.1666662 L24.6666657,19.1666662 L25.1666657,19.1666662 L25.1666657,18.6666662 L25.1666657,13.666667 L25.1666657,13.166667 L24.6666657,13.166667 L19.6666666,13.166667 L20.1666666,13.666667 L20.1666666,11.6746655 C20.1666666,11.1837563 20.441719,10.8333334 20.625,10.8333334 L24.6666657,10.8333334 L25.1666657,10.8333334 L25.1666657,10.3333334 L25.1666657,5.33333298 L25.1666657,4.83333298 L24.6666657,4.83333298 L20.625,4.83333298 C17.2778679,4.83333298 14.5,8.04179089 14.5,11.7186655 L14.5,13.666667 L15,13.166667 L11.3333338,13.166667 L10.8333338,13.166667 L10.8333338,13.666667 L10.8333338,18.6666662 L10.8333338,19.1666662 L11.3333338,19.1666662 L15,19.1666662 L14.5,18.6666662 L14.5,30 L15,29.5 L5.00033339,29.5 C2.64849685,29.5 0.5,27.3512121 0.5,24.999668 L0.5,5.00033339 C0.5,2.64883672 2.64844803,0.5 4.99999977,0.5 L25.0000008,0.5 C27.3515529,0.5 29.5,2.64883635 29.5,5.00033339 L29.5,5.00033339 Z" id="Shape"></path>
                            </g>
                        </g>
                    </g>
                </g>
            </g>
        </g>
    </g>
</svg>