<?xml version="1.0" encoding="UTF-8" standalone="no"?>
<svg width="20px" height="20px" viewBox="0 0 20 20" version="1.1" xmlns="http://www.w3.org/2000/svg" xmlns:xlink="http://www.w3.org/1999/xlink" xmlns:sketch="http://www.bohemiancoding.com/sketch/ns">
    <!-- Generator: Sketch 3.5.1 (25234) - http://www.bohemiancoding.com/sketch -->
    <title>fax</title>
    <desc>Created with Sketch.</desc>
    <defs></defs>
    <g id="View-Contact" stroke="none" stroke-width="1" fill="none" fill-rule="evenodd" sketch:type="MSPage">
        <g id="Desktop-HD" sketch:type="MSArtboardGroup" transform="translate(-736.000000, -358.000000)" fill="#333333">
            <g id="Information" sketch:type="MSLayerGroup" transform="translate(736.000000, 225.000000)">
                <g id="fax" transform="translate(0.000000, 133.000000)" sketch:type="MSShapeGroup">
                    <g id="Layer_1">
                        <g id="Group">
                            <path d="M18.3333203,14 L9,14 C8.81601562,14 8.66667969,14.1493359 8.66667969,14.3333203 C8.66667969,14.5173047 8.81601562,14.6666406 9,14.6666406 L18.3333203,14.6666406 C18.5173047,14.6666406 18.6666406,14.5173047 18.6666406,14.3333203 C18.6666406,14.1493359 18.5173437,14 18.3333203,14 L18.3333203,14 Z" id="Shape"></path>
                            <path d="M17,7.33332031 L15.6666797,7.33332031 C15.4826953,7.33332031 15.3333594,7.48265625 15.3333594,7.66664063 C15.3333594,7.850625 15.4826953,7.99996094 15.6666797,7.99996094 L17,7.99996094 C17.1839844,7.99996094 17.3333203,7.850625 17.3333203,7.66664063 C17.3333203,7.48265625 17.1839844,7.33332031 17,7.33332031 L17,7.33332031 Z" id="Shape"></path>
                            <path d="M17,11.3333203 L15.6666797,11.3333203 C15.4826953,11.3333203 15.3333594,11.4826563 15.3333594,11.6666406 C15.3333594,11.850625 15.4826953,11.9999609 15.6666797,11.9999609 L17,11.9999609 C17.1839844,11.9999609 17.3333203,11.850625 17.3333203,11.6666406 C17.3333203,11.4826563 17.1839844,11.3333203 17,11.3333203 L17,11.3333203 Z" id="Shape"></path>
                            <path d="M17,9.33332031 L15.6666797,9.33332031 C15.4826953,9.33332031 15.3333594,9.48265625 15.3333594,9.66664063 C15.3333594,9.850625 15.4826953,9.99996094 15.6666797,9.99996094 L17,9.99996094 C17.1839844,9.99996094 17.3333203,9.850625 17.3333203,9.66664063 C17.3333203,9.48265625 17.1839844,9.33332031 17,9.33332031 L17,9.33332031 Z" id="Shape"></path>
                            <path d="M8.33332031,15.3333203 L8,15.3333203 L8,1 C8,0.448671875 7.55132813,0 7,0 L3,0 C2.44867188,0 2,0.448671875 2,1 L2,14.3333203 C2,14.5173047 2.14933594,14.6666406 2.33332031,14.6666406 C2.51730469,14.6666406 2.66664063,14.5173047 2.66664063,14.3333203 L2.66664063,1 C2.66664063,0.816328125 2.81628906,0.666679688 2.99996094,0.666679688 L6.99996094,0.666679688 C7.18363281,0.666679688 7.33328125,0.816328125 7.33328125,1 L7.33328125,17 C7.33328125,17.1836719 7.18363281,17.3333203 6.99996094,17.3333203 L3,17.3333203 C2.81632812,17.3333203 2.66667969,17.1836719 2.66667969,17 L2.66667969,15.6666797 C2.66667969,15.4826953 2.51734375,15.3333594 2.33335938,15.3333594 L1.66667969,15.3333594 C1.06867188,15.3333594 0.666679687,14.9313672 0.666679687,14.3333594 L0.666679687,2.33335938 C0.666679687,1.97734375 0.854023437,1.65570313 1.16769531,1.47300781 C1.32667969,1.38035156 1.38070313,1.17632813 1.28804688,1.01699219 C1.19503906,0.858007813 0.991054688,0.803984375 0.832382813,0.896640625 C0.318671875,1.19566406 0,1.74632813 0,2.33332031 L0,14.3333203 C0,15.2989844 0.701015625,16 1.66667969,16 L2,16 L2,17 C2,17.5513281 2.44867188,18 3,18 L7,18 C7.55132813,18 8,17.5513281 8,17 L8,16 L8.33332031,16 C8.51730469,16 8.66664062,15.8506641 8.66664062,15.6666797 C8.66664062,15.4826953 8.51734375,15.3333203 8.33332031,15.3333203 L8.33332031,15.3333203 Z" id="Shape"></path>
                            <path d="M17.6666797,15.3333203 C17.4826953,15.3333203 17.3333594,15.4823047 17.3333594,15.6666406 L17.3333594,19.3333203 L10,19.3333203 L10,15.6666406 C10,15.4823047 9.85066406,15.3333203 9.66667969,15.3333203 C9.48269531,15.3333203 9.33335937,15.4823047 9.33335937,15.6666406 L9.33335937,19.6666406 C9.33335937,19.850625 9.48269531,19.9999609 9.66667969,19.9999609 L17.6666797,19.9999609 C17.8506641,19.9999609 18,19.850625 18,19.6666406 L18,15.6666406 C18,15.4823438 17.8506641,15.3333203 17.6666797,15.3333203 L17.6666797,15.3333203 Z" id="Shape"></path>
                            <path d="M11.6666797,18 L15,18 C15.1839844,18 15.3333203,17.8506641 15.3333203,17.6666797 C15.3333203,17.4826953 15.1839844,17.3333594 15,17.3333594 L11.6666797,17.3333594 C11.4826953,17.3333594 11.3333594,17.4826953 11.3333594,17.6666797 C11.3333203,17.8506641 11.4826563,18 11.6666797,18 L11.6666797,18 Z" id="Shape"></path>
                            <path d="M11.6666797,16.6666797 L15.6666797,16.6666797 C15.8506641,16.6666797 16,16.5173437 16,16.3333594 C16,16.149375 15.8506641,16.0000391 15.6666797,16.0000391 L11.6666797,16.0000391 C11.4826953,16.0000391 11.3333594,16.149375 11.3333594,16.3333594 C11.3333594,16.5173437 11.4826562,16.6666797 11.6666797,16.6666797 L11.6666797,16.6666797 Z" id="Shape"></path>
                            <path d="M10.3333203,10 L11.6666406,10 C11.850625,10 11.9999609,9.85066406 11.9999609,9.66667969 C11.9999609,9.48269531 11.850625,9.33335937 11.6666406,9.33335937 L10.3333203,9.33335937 C10.1493359,9.33335937 10,9.48269531 10,9.66667969 C10,9.85066406 10.1493359,10 10.3333203,10 L10.3333203,10 Z" id="Shape"></path>
                            <path d="M10.3333203,8 L11.6666406,8 C11.850625,8 11.9999609,7.85066406 11.9999609,7.66667969 C11.9999609,7.48269531 11.850625,7.33335937 11.6666406,7.33335937 L10.3333203,7.33335937 C10.1493359,7.33335937 10,7.48269531 10,7.66667969 C10,7.85066406 10.1493359,8 10.3333203,8 L10.3333203,8 Z" id="Shape"></path>
                            <path d="M10.3333203,12 L11.6666406,12 C11.850625,12 11.9999609,11.8506641 11.9999609,11.6666797 C11.9999609,11.4826953 11.850625,11.3333594 11.6666406,11.3333594 L10.3333203,11.3333594 C10.1493359,11.3333594 10,11.4826953 10,11.6666797 C10,11.8506641 10.1493359,12 10.3333203,12 L10.3333203,12 Z" id="Shape"></path>
                            <path d="M18.3333203,0.666679687 L9,0.666679687 C8.81601562,0.666679687 8.66667969,0.816015625 8.66667969,1 C8.66667969,1.18398437 8.81601562,1.33332031 9,1.33332031 L18.3333203,1.33332031 C18.8846484,1.33332031 19.3333203,1.78199219 19.3333203,2.33332031 L19.3333203,14.6666406 C19.3333203,15.0199609 19.1439844,15.350625 18.8386719,15.5296484 C18.68,15.6229687 18.6266797,15.8269922 18.72,15.9859766 C18.7819922,16.0916406 18.8933203,16.150625 19.0076562,16.150625 C19.065,16.150625 19.1233203,16.135625 19.1763281,16.1046094 C19.6843359,15.8063281 20,15.2556641 20,14.6666797 L20,2.33332031 C20,1.41433594 19.2523437,0.666679687 18.3333203,0.666679687 L18.3333203,0.666679687 Z" id="Shape"></path>
                            <path d="M14.3333203,9.33332031 L13,9.33332031 C12.8160156,9.33332031 12.6666797,9.48265625 12.6666797,9.66664063 C12.6666797,9.850625 12.8160156,10 13,10 L14.3333203,10 C14.5173047,10 14.6666406,9.85066406 14.6666406,9.66667969 C14.6666406,9.48269531 14.5173437,9.33332031 14.3333203,9.33332031 L14.3333203,9.33332031 Z" id="Shape"></path>
                            <path d="M17.3333203,3.66667969 C17.3333203,3.48269531 17.1839844,3.33335937 17,3.33335937 L10.3333203,3.33335937 C10.1493359,3.33335937 10,3.48269531 10,3.66667969 L10,5.66667969 C10,5.85066406 10.1493359,6 10.3333203,6 L17,6 C17.1839844,6 17.3333203,5.85066406 17.3333203,5.66667969 L17.3333203,3.66667969 L17.3333203,3.66667969 Z M16.6666797,5.33332031 L10.6666797,5.33332031 L10.6666797,4 L16.6666797,4 L16.6666797,5.33332031 L16.6666797,5.33332031 Z" id="Shape"></path>
                            <path d="M14.3333203,11.3333203 L13,11.3333203 C12.8160156,11.3333203 12.6666797,11.4826563 12.6666797,11.6666406 C12.6666797,11.850625 12.8160156,11.9999609 13,11.9999609 L14.3333203,11.9999609 C14.5173047,11.9999609 14.6666406,11.850625 14.6666406,11.6666406 C14.6666406,11.4826563 14.5173437,11.3333203 14.3333203,11.3333203 L14.3333203,11.3333203 Z" id="Shape"></path>
                            <path d="M14.3333203,7.33332031 L13,7.33332031 C12.8160156,7.33332031 12.6666797,7.48265625 12.6666797,7.66664063 C12.6666797,7.850625 12.8160156,7.99996094 13,7.99996094 L14.3333203,7.99996094 C14.5173047,7.99996094 14.6666406,7.850625 14.6666406,7.66664063 C14.6666406,7.48265625 14.5173437,7.33332031 14.3333203,7.33332031 L14.3333203,7.33332031 Z" id="Shape"></path>
                        </g>
                    </g>
                </g>
            </g>
        </g>
    </g>
</svg>