<?xml version="1.0" encoding="UTF-8" standalone="no"?>
<svg width="19px" height="26px" viewBox="0 0 19 26" version="1.1" xmlns="http://www.w3.org/2000/svg" xmlns:xlink="http://www.w3.org/1999/xlink" xmlns:sketch="http://www.bohemiancoding.com/sketch/ns">
    <!-- Generator: Sketch 3.5.1 (25234) - http://www.bohemiancoding.com/sketch -->
    <title>Localisation</title>
    <desc>Created with Sketch.</desc>
    <defs></defs>
    <g id="View-Contact" stroke="none" stroke-width="1" fill="none" fill-rule="evenodd" sketch:type="MSPage">
        <g id="Desktop-HD" sketch:type="MSArtboardGroup" transform="translate(-736.000000, -264.000000)" fill="#333333">
            <g id="Information" sketch:type="MSLayerGroup" transform="translate(736.000000, 225.000000)">
                <g id="Localisation" transform="translate(0.000000, 39.000000)" sketch:type="MSShapeGroup">
                    <g id="Group">
                        <g id="locate">
                            <path d="M17.2613636,9.33054778 C17.2613636,10.5394376 16.9352326,11.8736565 16.3095388,13.3469312 C15.6277215,14.9523558 14.6498105,16.618748 13.2281405,18.7156108 C13.0001937,19.0518162 10.8737094,22.0974562 10.3796684,22.8642798 C9.45583949,24.2981967 9.01283958,25.2518246 9.02277055,26.0065784 L10.0227273,26 C10.0227273,25.2496213 9.57776841,24.3023955 8.65533326,22.8755718 C8.16898941,22.1232946 6.08190267,19.1369631 5.81729358,18.7465741 C4.35799657,16.5936114 3.360848,14.8823272 2.67967218,13.2337307 C2.09075368,11.8084174 1.78409091,10.5113523 1.78409091,9.33054778 C1.78409091,5.05661714 5.24879648,1.59191142 9.52272727,1.59191142 C13.796658,1.59191142 17.2613636,5.05661717 17.2613636,9.33054778 L17.2613636,9.33054778 Z M18.2613636,9.33054778 C18.2613636,4.50433243 14.3489428,0.59191142 9.52272727,0.59191142 C4.69651172,0.59191142 0.784090909,4.5043324 0.784090909,9.33054778 C0.784090909,10.656606 1.12015711,12.0780362 1.755457,13.6156028 C2.46801341,15.3401472 3.49528607,17.1031298 4.9895246,19.3076432 C5.26306663,19.7112113 7.34088346,22.6842789 7.81554742,23.4184896 C8.63133018,24.6803433 9.02272727,25.5135471 9.02272727,26 L10.022684,25.9934216 C10.0162981,25.5080905 10.4049936,24.6713613 11.2203064,23.4058772 C11.7023699,22.6576445 13.8186857,19.6265682 14.0558365,19.2767876 C15.5107873,17.1308379 16.5176066,15.415185 17.2299705,13.7378348 C17.9042183,12.1502335 18.2613636,10.6891333 18.2613636,9.33054778 L18.2613636,9.33054778 Z" id="Shape"></path>
                            <path d="M9.52272727,13.1477273 C11.5247595,13.1477273 13.1477273,11.5247595 13.1477273,9.52272727 C13.1477273,7.52069505 11.5247595,5.89772727 9.52272727,5.89772727 C7.52069505,5.89772727 5.89772727,7.52069505 5.89772727,9.52272727 C5.89772727,11.5247595 7.52069505,13.1477273 9.52272727,13.1477273 L9.52272727,13.1477273 Z M9.52272727,12.1477273 C8.0729798,12.1477273 6.89772727,10.9724747 6.89772727,9.52272727 C6.89772727,8.0729798 8.0729798,6.89772727 9.52272727,6.89772727 C10.9724747,6.89772727 12.1477273,8.0729798 12.1477273,9.52272727 C12.1477273,10.9724747 10.9724747,12.1477273 9.52272727,12.1477273 L9.52272727,12.1477273 Z" id="Shape"></path>
                        </g>
                    </g>
                </g>
            </g>
        </g>
    </g>
</svg>