<?xml version="1.0" encoding="UTF-8" standalone="no"?>
<svg width="20px" height="20px" viewBox="0 0 20 20" version="1.1" xmlns="http://www.w3.org/2000/svg" xmlns:xlink="http://www.w3.org/1999/xlink" xmlns:sketch="http://www.bohemiancoding.com/sketch/ns">
    <!-- Generator: Sketch 3.5.1 (25234) - http://www.bohemiancoding.com/sketch -->
    <title>mailbox</title>
    <desc>Created with Sketch.</desc>
    <defs></defs>
    <g id="View-Contact" stroke="none" stroke-width="1" fill="none" fill-rule="evenodd" sketch:type="MSPage">
        <g id="Desktop-HD" sketch:type="MSArtboardGroup" transform="translate(-737.000000, -402.000000)" fill="#333333">
            <g id="Information" sketch:type="MSLayerGroup" transform="translate(736.000000, 225.000000)">
                <g id="mailbox" transform="translate(1.000000, 177.000000)" sketch:type="MSShapeGroup">
                    <g id="Layer_1">
                        <g id="Group">
                            <path d="M9.14898438,9.36832031 L8.48230469,9.035 C8.31730469,8.95300781 8.11761719,9.01964844 8.03496094,9.18433594 C7.95261719,9.34898437 8.01960938,9.54898437 8.18429688,9.63132812 L8.85097656,9.965 C8.89863281,9.98867187 8.94964844,10 8.99964844,10 C9.12199219,10 9.23964844,9.93265625 9.29832031,9.81566406 C9.38066406,9.65101562 9.31367188,9.45066406 9.14898438,9.36832031 L9.14898438,9.36832031 Z" id="Shape"></path>
                            <path d="M10.3333203,14 C10.1493359,14 10,14.1493359 10,14.3333203 L10,19.6666406 C10,19.850625 10.1493359,19.9999609 10.3333203,19.9999609 C10.5173047,19.9999609 10.6666406,19.850625 10.6666406,19.6666406 L10.6666406,14.3333203 C10.6666797,14.1493359 10.5173438,14 10.3333203,14 L10.3333203,14 Z" id="Shape"></path>
                            <path d="M5.82101563,9.05199219 L4.00867188,10.205 C3.85332031,10.3036719 3.80734375,10.5096484 3.90632813,10.665 C3.96964844,10.765 4.07765625,10.8193359 4.18800781,10.8193359 C4.24902344,10.8193359 4.31101563,10.8026562 4.36632813,10.7673437 L6.17898438,9.6146875 C6.33433594,9.51570312 6.38,9.3096875 6.28132813,9.15433594 C6.18234375,8.99898437 5.97632813,8.95332031 5.82101563,9.05199219 L5.82101563,9.05199219 Z" id="Shape"></path>
                            <path d="M3.66667969,5.33332031 L9,5.33332031 C9.18398438,5.33332031 9.33332031,5.18398437 9.33332031,5 C9.33332031,4.81601562 9.18398438,4.66667969 9,4.66667969 L3.66667969,4.66667969 C3.11535156,4.66667969 2.66667969,5.11535156 2.66667969,5.66667969 L2.66667969,11 C2.66667969,11.5513281 3.11535156,12 3.66667969,12 L9,12 C9.18398438,12 9.33332031,11.8506641 9.33332031,11.6666797 C9.33332031,11.4826953 9.18398438,11.3333594 9,11.3333594 L3.66667969,11.3333594 C3.48300781,11.3333594 3.33335938,11.1837109 3.33335938,11.0000391 L3.33335938,6.33332031 L6.80003906,8.93332031 C6.85902344,8.97765625 6.9296875,9 7.00003906,9 C7.064375,9 7.12871094,8.98132812 7.18503906,8.94398437 L9.18503906,7.61066406 C9.33804688,7.50867187 9.379375,7.30167969 9.27738281,7.14832031 C9.17503906,6.9953125 8.96804688,6.95332031 8.81503906,7.05597656 L7.01136719,8.25832031 L3.36738281,5.52566406 C3.42101563,5.41265625 3.53398438,5.33332031 3.66667969,5.33332031 L3.66667969,5.33332031 Z" id="Shape"></path>
                            <path d="M11.6666797,14 C11.4826953,14 11.3333594,14.1493359 11.3333594,14.3333203 L11.3333594,19.6666406 C11.3333594,19.850625 11.4826953,19.9999609 11.6666797,19.9999609 C11.8506641,19.9999609 12,19.850625 12,19.6666406 L12,14.3333203 C12,14.1493359 11.8506641,14 11.6666797,14 L11.6666797,14 Z" id="Shape"></path>
                            <path d="M14.6666797,0 L5.33332031,0 C2.39265625,0 0,2.39265625 0,5.33332031 L0,13 C0,13.1839844 0.149335938,13.3333203 0.333320312,13.3333203 L9,13.3333203 C9.18398438,13.3333203 9.33332031,13.1839844 9.33332031,13 C9.33332031,12.8160156 9.18398437,12.6666797 9,12.6666797 L0.666679688,12.6666797 L0.666679688,5.33332031 C0.666679688,2.76 2.76,0.666640625 5.33335938,0.666640625 C7.86300781,0.666679687 10,2.65101563 10,5 L10,13 C10,13.1839844 10.1493359,13.3333203 10.3333203,13.3333203 L19.6666406,13.3333203 C19.850625,13.3333203 19.9999609,13.1839844 19.9999609,13 L19.9999609,5.33332031 C20,2.39265625 17.6073438,0 14.6666797,0 L14.6666797,0 Z M19.3333203,12.6666797 L10.6666797,12.6666797 L10.6666797,5 C10.6666797,3.17398437 9.55835938,1.53933594 7.95132813,0.666679687 L14.6666797,0.666679687 C17.24,0.666679687 19.3333594,2.76 19.3333594,5.33335937 L19.3333594,12.6666797 L19.3333203,12.6666797 Z" id="Shape"></path>
                            <path d="M16.6666797,6.72800781 L16.6666797,2.33332031 C16.6666797,2.14933594 16.5173437,2 16.3333594,2 L11.6666797,2 C11.4826953,2 11.3333594,2.14933594 11.3333594,2.33332031 L11.3333594,4.33332031 C11.3333594,4.51730469 11.4826953,4.66664063 11.6666797,4.66664063 L15,4.66664063 C15.1839844,4.66664063 15.3333203,4.51730469 15.3333203,4.33332031 C15.3333203,4.14933594 15.1839844,4 15,4 L12,4 L12,2.66667969 L16,2.66667969 L16,6.72800781 C15.6126562,6.86632813 15.3333203,7.23265625 15.3333203,7.66667969 C15.3333203,8.21800781 15.7819922,8.66667969 16.3333203,8.66667969 C16.8846484,8.66667969 17.3333203,8.21800781 17.3333203,7.66667969 C17.3333203,7.23265625 17.0539844,6.86632813 16.6666797,6.72800781 L16.6666797,6.72800781 Z M16.3333203,8 C16.1496484,8 16,7.85035156 16,7.66667969 C16,7.48300781 16.1496484,7.33335938 16.3333203,7.33335938 C16.5169922,7.33335938 16.6666406,7.48300781 16.6666406,7.66667969 C16.6666797,7.85035156 16.5169922,8 16.3333203,8 L16.3333203,8 Z" id="Shape"></path>
                        </g>
                    </g>
                </g>
            </g>
        </g>
    </g>
</svg>