<?xml version="1.0" encoding="UTF-8" standalone="no"?>
<svg width="12px" height="27px" viewBox="0 0 12 27" version="1.1" xmlns="http://www.w3.org/2000/svg" xmlns:xlink="http://www.w3.org/1999/xlink" xmlns:sketch="http://www.bohemiancoding.com/sketch/ns">
    <!-- Generator: Sketch 3.5.1 (25234) - http://www.bohemiancoding.com/sketch -->
    <title>People</title>
    <desc>Created with Sketch.</desc>
    <defs></defs>
    <g id="View-Contact" stroke="none" stroke-width="1" fill="none" fill-rule="evenodd" sketch:type="MSPage">
        <g id="Desktop-HD" sketch:type="MSArtboardGroup" transform="translate(-737.000000, -225.000000)" fill="#333333">
            <g id="Information" sketch:type="MSLayerGroup" transform="translate(736.000000, 225.000000)">
                <g id="People" transform="translate(1.000000, 0.000000)" sketch:type="MSShapeGroup">
                    <g id="Group">
                        <g id="people">
                            <g id="Group">
                                <path d="M6,7.05555556 C7.81026668,7.05555556 9.27777778,5.58804446 9.27777778,3.77777778 C9.27777778,1.9675111 7.81026668,0.5 6,0.5 C4.18973332,0.5 2.72222222,1.9675111 2.72222222,3.77777778 C2.72222222,5.58804446 4.18973332,7.05555556 6,7.05555556 L6,7.05555556 Z M6,6.05555556 C4.74201807,6.05555556 3.72222222,5.03575971 3.72222222,3.77777778 C3.72222222,2.51979585 4.74201807,1.5 6,1.5 C7.25798193,1.5 8.27777778,2.51979585 8.27777778,3.77777778 C8.27777778,5.03575971 7.25798193,6.05555556 6,6.05555556 L6,6.05555556 Z" id="Shape"></path>
                                <path d="M9.57260185,6.44943419 L6.05521574,6.05861369 L5.94478426,6.05861369 L2.42739815,6.44943419 C1.3301272,6.57135314 0.5,7.49882565 0.5,8.602849 L0.5,14.8338809 C0.5,16.7193651 1.83084648,18.3427371 3.67971618,18.7125125 L3.28279989,18.2929331 L4.39391417,26.0707109 L4.45524136,26.5 L4.88888889,26.5 L7.11111111,26.5 L7.54475881,26.5 L7.60608586,26.0707107 L8.71719697,18.2929329 L8.32028047,18.7125125 C10.1691528,18.3427374 11.5,16.7193658 11.5,14.8338809 L11.5,8.602849 C11.5,7.49882565 10.6698728,6.57135314 9.57260186,6.44943419 L9.57260185,6.44943419 Z M9.46217037,7.44331792 C10.0530085,7.50896659 10.5,8.00837477 10.5,8.602849 L10.5,14.8338809 C10.5,16.2426847 9.5056125,17.4556417 8.12416398,17.7319319 L7.77727633,17.8013096 L7.72724748,18.1515115 L6.61613636,25.9292893 L7.11111111,25.5 L4.88888889,25.5 L5.38386361,25.9292891 L4.27274933,18.1515113 L4.22272038,17.8013097 L3.87583304,17.731932 C2.49438708,17.4556417 1.5,16.2426842 1.5,14.8338809 L1.5,8.602849 C1.5,8.00837477 1.94699149,7.50896659 2.53782963,7.44331792 L6.05521574,7.05249743 L5.94478426,7.05249743 L9.46217037,7.44331793 L9.46217037,7.44331792 Z" id="Shape"></path>
                            </g>
                        </g>
                    </g>
                </g>
            </g>
        </g>
    </g>
</svg>