<?xml version="1.0" encoding="UTF-8" standalone="no"?>
<svg width="18px" height="27px" viewBox="0 0 18 27" version="1.1" xmlns="http://www.w3.org/2000/svg" xmlns:xlink="http://www.w3.org/1999/xlink" xmlns:sketch="http://www.bohemiancoding.com/sketch/ns">
    <!-- Generator: Sketch 3.5.1 (25234) - http://www.bohemiancoding.com/sketch -->
    <title>Phone</title>
    <desc>Created with Sketch.</desc>
    <defs></defs>
    <g id="View-Contact" stroke="none" stroke-width="1" fill="none" fill-rule="evenodd" sketch:type="MSPage">
        <g id="Desktop-HD" sketch:type="MSArtboardGroup" transform="translate(-736.000000, -308.000000)" fill="#333333">
            <g id="Information" sketch:type="MSLayerGroup" transform="translate(736.000000, 225.000000)">
                <g id="Phone" transform="translate(0.000000, 83.000000)" sketch:type="MSShapeGroup">
                    <g id="Group">
                        <g id="i-phone">
                            <path d="M1.54347826,4.5 L17.3043478,4.5 L17.3043478,3.5 L1.54347826,3.5 L1.54347826,4.5 L1.54347826,4.5 Z" id="Shape"></path>
                            <path d="M17.3043478,19.5 L1.54347826,19.5 L1.54347826,20.5 L17.3043478,20.5 L17.3043478,19.5 L17.3043478,19.5 Z" id="Shape"></path>
                            <path d="M15.1304348,25.5 L3.17391304,25.5 C2.24943606,25.5 1.5,24.7505642 1.5,23.826087 L1.5,3.17391304 C1.5,2.24943638 2.24943641,1.5 3.17391304,1.5 L15.1304348,1.5 C16.0549121,1.5 16.8043478,2.24943599 16.8043478,3.17391304 L16.8043478,23.826087 C16.8043478,24.7505646 16.0549124,25.5 15.1304348,25.5 L15.1304348,25.5 Z M15.1304348,26.5 C16.6071972,26.5 17.8043478,25.3028493 17.8043478,23.826087 L17.8043478,3.17391304 C17.8043478,1.69715131 16.6071969,0.5 15.1304348,0.5 L3.17391304,0.5 C1.69715167,0.5 0.5,1.69715163 0.5,3.17391304 L0.5,23.826087 C0.5,25.302849 1.69715138,26.5 3.17391304,26.5 L15.1304348,26.5 L15.1304348,26.5 Z" id="Shape"></path>
                            <path d="M9.15217391,24.326087 C9.72847104,24.326087 10.1956522,23.8589058 10.1956522,23.2826087 C10.1956522,22.7063116 9.72847104,22.2391304 9.15217391,22.2391304 C8.57587678,22.2391304 8.10869565,22.7063116 8.10869565,23.2826087 C8.10869565,23.8589058 8.57587678,24.326087 9.15217391,24.326087 L9.15217391,24.326087 Z M9.15217391,23.326087 C9.12816153,23.326087 9.10869565,23.3066211 9.10869565,23.2826087 C9.10869565,23.2585963 9.12816153,23.2391304 9.15217391,23.2391304 C9.17618629,23.2391304 9.19565217,23.2585963 9.19565217,23.2826087 C9.19565217,23.3066211 9.17618629,23.326087 9.15217391,23.326087 L9.15217391,23.326087 Z" id="Shape"></path>
                        </g>
                    </g>
                </g>
            </g>
        </g>
    </g>
</svg>