<?xml version="1.0" encoding="UTF-8" standalone="no"?>
<svg width="45px" height="31px" viewBox="0 0 45 31" version="1.1" xmlns="http://www.w3.org/2000/svg" xmlns:xlink="http://www.w3.org/1999/xlink" xmlns:sketch="http://www.bohemiancoding.com/sketch/ns">
    <!-- Generator: Sketch 3.5.1 (25234) - http://www.bohemiancoding.com/sketch -->
    <title>Shape</title>
    <desc>Created with Sketch.</desc>
    <defs></defs>
    <g id="Actualité" stroke="none" stroke-width="1" fill="none" fill-rule="evenodd" sketch:type="MSPage">
        <g id="Desktop-HD" sketch:type="MSArtboardGroup" transform="translate(-685.000000, -1104.000000)" fill="#000000">
            <g id="Subdivision" sketch:type="MSLayerGroup" transform="translate(0.000000, 898.000000)">
                <g id="Group-2" transform="translate(168.000000, 205.000000)" sketch:type="MSShapeGroup">
                    <g id="sociai-icons-twitter-74" transform="translate(518.000000, 1.000000)">
                        <g id="Group">
                            <g id="twitter_1_">
                                <path d="M37.6287719,14.373056 C40.0846322,14.1704666 41.9160431,13.0449882 42.6385953,11.3382319 L43.247482,9.89996712 L41.9165252,10.7172202 C40.9926738,11.2844966 38.5203467,11.6490397 37.384112,11.2263144 L37.2097667,11.6949334 L37.6992465,11.5929063 C37.6307446,11.2642647 37.5512921,10.9335102 37.4624966,10.6005231 C36.248189,6.14190588 32.1365479,2.82279466 27.9942227,3.2353302 L28.0437728,3.73286894 L28.2309692,4.19650404 C28.55185,4.06694582 28.8699289,3.94941716 29.1813127,3.84577193 C29.2209944,3.8316851 30.1100337,3.60977293 30.4714157,3.49690356 C31.7801157,3.08816116 32.4976252,2.57368224 32.0976776,1.67714452 C31.7770266,0.927644704 30.9010446,1.00000726 29.4108381,1.4685256 C29.2005523,1.5346391 28.9807955,1.60903066 28.7472442,1.69240903 C28.4202069,1.80916213 27.4847445,2.16697826 27.3985511,2.19367163 L27.7224866,3.13928422 C29.307304,2.54320523 30.108488,2.03957341 30.2616872,1.04272484 L30.3634801,0.380370692 L29.6995625,0.471410311 C28.4068046,0.648679569 27.1315227,1.25535324 26.1378358,2.15615185 L26.4736508,2.52659526 L26.8400312,2.86683835 C27.2638151,2.41049952 27.5392643,1.88448291 27.6021455,1.33190007 L27.7208429,0.288818147 L26.836162,0.854016125 C23.9683124,2.68620542 22.1002152,5.84394542 20.0420664,11.2833829 L20.8576394,11.1012384 C19.4858865,9.77211695 18.4721141,8.94267738 17.5530991,8.45293144 C14.499636,6.81525956 11.2305728,5.35572788 6.67906266,3.66591216 L6.06750396,3.43886191 L6.00717926,4.08841313 C5.80986999,6.21295707 7.18876041,8.47129947 9.87923292,9.87681075 L10.1771566,8.93806889 C9.55683995,8.85494274 8.49937018,8.99560881 7.40009563,9.258782 L6.93599076,9.36989161 L7.02535365,9.83866976 C7.47153336,12.1792307 9.02785543,13.6980974 12.1212332,14.4292437 L12.2033254,13.4437357 C10.671331,13.5448161 9.78242354,13.9041978 8.98628268,14.7380951 L8.74253057,14.9934069 L8.90151345,15.3085635 C9.86241193,17.2133819 11.8701885,18.4195958 14.5906531,18.1226755 L14.3384736,17.1664718 C12.6175043,17.9083373 11.9415088,19.1559512 12.5502725,20.3197898 C13.0838937,21.3399705 14.4719881,21.9229322 15.9218926,21.7106078 L15.4902243,20.8680907 C11.3716849,25.1219518 4.62155082,25.145056 0.563172994,21.2723197 L-0.18511073,21.9298705 C10.164957,36.0333878 34.0749335,31.5502421 37.8197613,16.377608 L37.3300549,16.7577778 C39.745793,16.7784258 41.4897556,16.0283915 42.7284793,14.6988462 L43.7357274,13.6177479 L42.2789646,13.8650618 C40.9401939,14.0923443 38.8800718,13.8711338 37.779812,13.413143 L37.6287719,14.373056 L37.6287719,14.373056 Z M37.5465589,13.3764412 L35.49586,13.5456079 L37.3955189,14.3363542 C38.6720813,14.8677322 40.9235121,15.1094848 42.4463392,14.8509552 L41.9968245,14.0171709 C40.9492689,15.1415319 39.4738668,15.776065 37.3386019,15.7578143 L36.9435603,15.7544378 L36.8488955,16.1379841 C33.3088273,30.4810093 10.4728837,34.7627727 0.621090085,21.3382285 L-0.127193639,21.9957794 C4.32350795,26.2428935 11.7027573,26.2176359 16.2086661,21.5636778 L17.2304552,20.508316 L15.7769977,20.7211607 C14.7217048,20.8756981 13.7578546,20.4709074 13.4363749,19.8563003 C13.1354753,19.2810384 13.4939212,18.6194924 14.7343337,18.0847826 L17.7900426,16.7675453 L14.4821542,17.1285789 C12.1944937,17.3782616 10.5747306,16.405155 9.79434333,14.8581695 L9.70957409,15.428638 C10.3181237,14.7912284 10.9711619,14.5272077 12.2691619,14.4415661 L15.5929601,14.222263 L12.351254,13.456058 C9.62943523,12.8127328 8.37736868,11.5907993 8.00766454,9.65141243 L7.63292256,10.2313002 C8.61850337,9.99534599 9.58172722,9.86721664 10.0443378,9.92920924 L12.862016,10.306795 L10.3422615,8.99046738 C7.99553656,7.76453093 6.84506787,5.88029693 7.00289442,4.18088655 L6.33101101,4.60338752 C10.8409256,6.2777603 14.0684271,7.718736 17.0816307,9.33481335 C17.8978896,9.76980229 18.852572,10.5508962 20.1617806,11.8194169 L20.708133,12.3487898 L20.9773536,11.6372725 C22.9628439,6.38986257 24.7456978,3.37621371 27.3745413,1.69671878 L27.1053517,1.27536745 L26.6085579,1.21883483 C26.5721372,1.53889047 26.3957739,1.87568584 26.1072703,2.18635217 L26.8094657,2.89703866 C27.6557565,2.12985781 28.7450692,1.61165291 29.835416,1.46213924 L29.2732913,0.890824707 C29.2017355,1.35642977 28.5756221,1.75001058 27.3704456,2.20329965 L27.6943811,3.14891224 C27.8174273,3.11080586 28.7835312,2.74126931 29.0834633,2.63419283 C29.3056941,2.55485589 29.5135979,2.4844768 29.7107625,2.4224886 C30.5835865,2.14807425 31.1901096,2.09797097 31.1813698,2.07754644 C31.1814657,2.07790466 31.1849665,2.07028106 31.07093,2.15204918 C30.8881774,2.28308904 30.5797927,2.41541516 30.1732911,2.54237659 C29.857859,2.64089455 28.9409306,2.86976811 28.8546648,2.9006953 C28.5339025,3.00732382 28.196339,3.13205195 27.8565764,3.26923383 L24.6190479,4.57641186 L28.0933228,4.23040767 C31.714771,3.86974645 35.4040443,6.84790239 36.4969509,10.8607433 C36.5805303,11.1741972 36.6557333,11.4872611 36.7202869,11.7969604 L36.7766305,12.0672716 L37.0354215,12.1635524 C38.4784974,12.700435 41.2675393,12.2891924 42.4397877,11.5693917 L41.7177177,10.9483801 C41.1527531,12.2828953 39.6565335,13.2023847 37.5465589,13.3764412 L37.5465589,13.3764412 Z" id="Shape"></path>
                            </g>
                        </g>
                    </g>
                </g>
            </g>
        </g>
    </g>
</svg>