<?xml version="1.0" encoding="utf-8"?>
<!-- Generator: Adobe Illustrator 18.1.1, SVG Export Plug-In . SVG Version: 6.00 Build 0)  -->
<svg version="1.1" id="Calque_1" xmlns="http://www.w3.org/2000/svg" xmlns:xlink="http://www.w3.org/1999/xlink" x="0px" y="0px"
	 viewBox="0 0 76 57" enable-background="new 0 0 76 57" xml:space="preserve">
<path fill="#F39200" d="M15.5,17.8c5.2-11.6,12.2-5.6,21.5-9.3C40.8,7,45,2.2,47.5,0.8C48.6,0,49.6,0.6,50,1.6
	c0.8,2.6-1.6,3.6-1.2,6.1c0.6,2.7,5.7-5.6,10.7-1.9c2.2,1.6,0.9,6-3.3,6.1c2.7-0.6,3.5-4.6,0.4-5.3c-2.7-0.6-6.5,6.6-9.3,2.9
	c-2.1-2.8,3-6.7,1-6.8c-1,0-2.7,2.2-3.7,3c-2.3,1.8-4.6,3.8-7.2,5c-3.4,1.6-8.1,0.3-12.3,1.1c-3.6,0.7-6.6,2-8.5,4.4
	C16.1,16.8,15.7,17.3,15.5,17.8z"/>
<path fill="#F39200" d="M41.1,1.1c0,1.3-2.4,2.7-3.6,3.2C34.3,6,29.8,5.8,25.5,6.7c-2.6,0.6-4.6,1.4-6.6,2.3
	c1.8-3.2,6.1-4.4,10.3-5.1C33.5,3.1,38.7,3.7,41.1,1.1z"/>
<path fill="#12100B" d="M50.6,12.1c-0.1,0.7-0.4,1.4-0.4,2.1c-0.2,1.6,0.1,3.2,0.4,4.4c0.6,3.3,1.4,6,1.7,9.4
	c0.4,5.1-1.3,9.8-4.9,11.4c-2.1,0.9-4.6,1.2-7.1,1.8c-3.7,0.9-7.4,2-10.2,3.9c-2.6,1.8-4.6,3.7-6.1,6.6c-0.7,1.7-1.4,3.5-2.1,5.2
	c-0.1-10.1,8.2-14.1,15.5-16.3c4.6-1.4,9.8-1.4,12.2-5.3c2.5-4.1,0.9-10.8,0-15.6c-0.3-1.5-0.6-3.6-0.4-4.9
	C49.2,13.7,50,13,50.6,12.1z"/>
<path fill="#F39200" d="M55.2,15.4c-0.2,2.5-0.1,3.3,0.2,4.7c1.1,5.2,3.6,11.7,0.4,16.5c-0.6,0.8-1.2,1.8-2.1,2.2
	c1.4-2.2,2.6-5.6,1.8-9.4C54.6,25,52.5,19.5,55.2,15.4z"/>
<path fill="#12100B" d="M43.6,14.3c0.1,0.6,0.1,1.1,0.2,1.7c0.4,0.1,1.1,0.3,1.5,0.3c0.4-0.6,0.5-1.4,0.8-2c0.4,0.2,0.7,0.4,1.1,0.6
	c-0.2,0.5-0.4,1.2-0.5,1.7c0.3,0.2,0.8,0.4,1.4,0.7c-0.2,0.4-0.5,0.8-0.7,1.3c-0.4-0.2-0.8-0.3-1.3-0.5c-0.5,1.5-2.6,3.6-5.1,3.1
	c-1.2-0.3-1.6-0.5-2.5-0.9c-0.3,0.3-0.6,0.7-0.9,1c-0.3-0.2-0.6-0.3-0.9-0.5c0.1-0.6,0.7-1.2,0.8-1.6c-0.3-0.5-0.8-0.8-1.1-1.3
	c0.3-0.3,0.8-1,1.3-1.1c0.3,0.3,0.6,0.9,0.9,1.2c0.3-0.3,0.7-0.8,0.9-1.1c-0.2-0.5-0.4-1-0.6-1.5c0.3-0.3,0.5-0.5,0.8-0.8
	c0,0,0.6,1,1.2,1.4c0.4-0.2,0.7-0.2,1.2-0.1c0.1-0.6,0.1-1,0.2-1.6C42.7,14.3,43.1,14.3,43.6,14.3z M41,17.7
	c0.1,0.1,0.2,0.2,0.2,0.3c0.3,0.2,0.4,0.2,0.8,0.2c0.4-0.2,0.5-0.4,0.6-0.9C42.1,17.2,41.3,17.3,41,17.7z M43.9,17.4
	c-0.5,1.6-2.5,2.5-3.9,1.1c-0.2,0.2-0.4,0.4-0.6,0.6c0,0,0,0.1,0,0.1c2.6,1,3.8,0.9,5.3-1.4c0,0,0-0.1,0-0.1
	C44.4,17.6,44.1,17.5,43.9,17.4z"/>
<path fill="#12100B" d="M26.4,15.7c0.1,1.1,0.1,1.1,0.2,1.8c0.1,0,1.5,0.1,1.5,0.1c0.1-0.4,0.2-0.9,0.2-1.3c0,0,1,0.4,1.4,0.6
	c-0.1,0.5-0.2,0.9-0.2,1.4c0.3,0.2,0.5,0.4,0.8,0.6c-0.8,3-4.1,4.9-7.8,3.6c-0.8-0.3-1.7-0.5-2.2-1.1c0.3-0.5,0.4-0.8,0.6-1
	c-0.4-0.5-0.8-1.1-1.2-1.6c0.1,0,0.9-0.5,1.3-0.8c0.3,0.5,0.7,0.9,1,1.4c0.1-0.1,0.1-0.1,0.2-0.2c0.3-0.3,0.7-0.5,1-0.8
	C23,18,22.8,17.5,22.6,17c0.4-0.2,0.8-0.3,1.2-0.5c0.2,0.4,0.3,0.9,0.5,1.3c0.3-0.1,0.6-0.2,0.9-0.2c0,0-0.2-1.2-0.3-1.7
	C25.3,15.9,26.3,15.7,26.4,15.7z M24.2,19.4c0.5,0.8,1.4,0.5,1.6-0.3C25.1,19.1,24.9,19.1,24.2,19.4z M27.5,19.1
	c-0.9,2-2.6,2.5-4.5,1.1c-0.4,0.2-0.7,0.5-1,0.9c2.2,2,5.6,0,6.6-1.6C28.3,19.4,27.9,19.2,27.5,19.1z"/>
<path fill="#F39200" d="M26.4,41.7c-1.3-0.2-2.3-1-3.2-1.7c-4.7-3.4-6.2-9.6-6-17.1c0.7,0.1,1.5,0.3,2.2,0.4
	c-1.3,7,1.4,11.9,4.3,15.6C24.4,39.8,25.4,41.2,26.4,41.7"/>
<path fill="#12100B" stroke="#FFFFFF" stroke-width="0.2432" d="M27.6,30.5c3.5-0.1,5.4,2.3,5.7,5.4c-1,0.7-1.8,1.6-3.1,2.1
	c-4.5,1.6-7.2-1.9-7-5.6C24.9,30.8,26.9,30.5,27.6,30.5z M24.9,33.1c1.5,1.1,5.1,1.5,6.1,1.7C31,32.6,26.7,31,24.9,33.1z M24.7,34.5
	c0.4,2.4,4,2.4,5.9,1.7C30.6,36.2,26.5,35.2,24.7,34.5z"/>
<path fill="#12100B" d="M34.5,13c0.5,0.1,0.9,0.1,1.4,0.2c-0.8,2.8-0.6,6.5-0.9,9.3c-0.1,1.2-0.2,2.4-0.2,3.6c2-0.6,4-1.2,6-1.7
	c0.3,0.6,0.5,1.2,0.8,1.8c-1.1,0.4-2.3,0.9-3.4,1.3c0.2,1.2,0.4,2.5,0.6,3.7c0.5-0.6,0.9-1.1,1.4-1.7c2,1,3.4,2.8,4.6,4.6
	c-1.6,1.6-3.3,3.1-4.9,4.7c-0.3-1.2-0.6-2.3-0.9-3.5c-0.4,0.1-0.9,0.2-1.3,0.3c-0.5-2.6-0.9-5.2-1.4-7.8c-1.1,0.3-2.1,0.6-3.2,0.9
	c0,0-0.1,0-0.1,0c-0.1-0.7-0.2-1.4-0.2-2.1c0,0-0.1,0-0.1,0c-1.7,0.5-2.8,0.8-3.9,1.7c0.1-4.1,3-2.1,3.9-4c0.1-1.1,0.3-2.2,0.4-3.3
	C33.5,18.3,34,15.7,34.5,13z M40.2,34.4c0.1,0.6,0.2,1.2,0.2,1.7c0.8-0.8,1.5-1.5,2.3-2.3C42.7,33.9,41,34.2,40.2,34.4z M38.9,33.2
	c1-0.2,2-0.4,3-0.6c-0.4-0.5-0.9-0.9-1.3-1.4C40.5,31.3,38.9,33.2,38.9,33.2z"/>
</svg>
